<svg xmlns="http://www.w3.org/2000/svg" width="192" height="192" fill="none"><g clip-path="url(#a)"><path fill="url(#b)" d="M67.53 116.278c-4.68 4.696-12.41 4.759-16.064-.772-15.08-22.823-12.605-53.848 7.457-73.981 20.064-20.136 51.074-22.71 73.936-7.691 5.538 3.637 5.499 11.363.822 16.056l-66.152 66.388Z"></path><path fill="url(#c)" d="M123.513 74.27c4.679-4.696 12.409-4.759 16.064.772 15.08 22.823 12.605 53.847-7.458 73.981-20.064 20.136-51.073 22.71-73.936 7.691-5.537-3.638-5.499-11.363-.822-16.056l66.152-66.388Z"></path></g><defs><linearGradient id="b" x1="91.044" x2="93.407" y1="24.425" y2="123.966" gradientUnits="userSpaceOnUse"><stop stop-color="#FFB878"></stop><stop offset=".495" stop-color="#FE7800"></stop><stop offset="1" stop-color="#EE7100"></stop></linearGradient><linearGradient id="c" x1="97.635" x2="99.998" y1="66.582" y2="166.123" gradientUnits="userSpaceOnUse"><stop stop-color="#FF67B3"></stop><stop offset=".505" stop-color="#E20C77"></stop><stop offset="1" stop-color="#CC0167"></stop></linearGradient><clipPath id="a"><path fill="#fff" d="M0 0h192v192H0z"></path></clipPath></defs></svg>